<svg xmlns="http://www.w3.org/2000/svg" viewBox="0 0 1200 800" role="img" aria-labelledby="title desc">
  <title id="title">Environment charity artwork</title>
  <desc id="desc">Stylized hills, trees, and sunlight in green tones.</desc>
  <defs>
    <linearGradient id="sky" x1="0" y1="0" x2="0" y2="1">
      <stop offset="0%" stop-color="#dff5d8"/>
      <stop offset="100%" stop-color="#f8fff1"/>
    </linearGradient>
    <linearGradient id="hillA" x1="0" y1="0" x2="1" y2="1">
      <stop offset="0%" stop-color="#86b96d"/>
      <stop offset="100%" stop-color="#4a7f47"/>
    </linearGradient>
    <linearGradient id="hillB" x1="0" y1="0" x2="1" y2="1">
      <stop offset="0%" stop-color="#5a944f"/>
      <stop offset="100%" stop-color="#2f6842"/>
    </linearGradient>
  </defs>
  <rect width="1200" height="800" fill="url(#sky)"/>
  <circle cx="980" cy="140" r="70" fill="#f4dd7a" opacity="0.9"/>
  <path d="M0 490C160 390 280 420 430 500C560 570 720 610 1200 470V800H0Z" fill="url(#hillA)"/>
  <path d="M0 590C210 470 350 500 520 610C680 710 890 710 1200 560V800H0Z" fill="url(#hillB)"/>
  <g fill="#244533">
    <rect x="190" y="370" width="20" height="110" rx="10"/>
    <circle cx="200" cy="350" r="42"/>
    <circle cx="170" cy="380" r="34"/>
    <circle cx="232" cy="382" r="34"/>
    <rect x="790" y="330" width="18" height="102" rx="9"/>
    <circle cx="799" cy="312" r="38"/>
    <circle cx="771" cy="340" r="29"/>
    <circle cx="826" cy="344" r="29"/>
    <rect x="930" y="388" width="16" height="84" rx="8"/>
    <circle cx="938" cy="372" r="29"/>
    <circle cx="916" cy="392" r="22"/>
    <circle cx="960" cy="392" r="22"/>
  </g>
  <path d="M540 470C620 420 710 450 760 520C680 560 600 570 520 540C505 510 513 487 540 470Z" fill="#ffffff" opacity="0.35"/>
</svg>
