<svg xmlns="http://www.w3.org/2000/svg" viewBox="0 0 64 64" fill="none">
  <rect width="64" height="64" rx="18" fill="#0b91eb" />
  <path d="M33 12v23.5" stroke="#f9fbff" stroke-width="4" stroke-linecap="round" />
  <path d="M34 13c9 .2 15.2 3.3 18 6.2-5 3.9-11.9 5.9-18 4.9" fill="#fdf3c7" />
  <path d="M34 13c9 .2 15.2 3.3 18 6.2-5 3.9-11.9 5.9-18 4.9" stroke="#f9fbff" stroke-width="2.6" stroke-linecap="round" stroke-linejoin="round" />
  <circle cx="31.5" cy="45.5" r="11.5" fill="#ffffff" />
  <circle cx="27.8" cy="41.8" r="1" fill="#c6d1dd" />
  <circle cx="34.7" cy="40.8" r="1" fill="#c6d1dd" />
  <circle cx="37.2" cy="46.1" r="1" fill="#c6d1dd" />
  <circle cx="31.4" cy="49.3" r="1" fill="#c6d1dd" />
  <circle cx="26.9" cy="46.7" r="1" fill="#c6d1dd" />
  <path d="M13 53c5.7-3.7 12.6-5.5 20.6-5.5 6.9 0 12.9 1.2 18.2 3.7" stroke="#8fe08a" stroke-width="3.5" stroke-linecap="round" />
</svg>
